<svg height="512" viewBox="0 0 512 512" width="512" xmlns="http://www.w3.org/2000/svg"><g id="Filled_outline" data-name="Filled outline"><path d="m368 232-56 160-56-136-40 16 50.946 133.733a53.21 53.21 0 0 0 49.724 34.267 53.209 53.209 0 0 0 49.04-32.561l50.29-119.439v-56z" fill="#fdc8a2"/><path d="m440 48a48 48 0 0 1 48 48v120a48 48 0 0 1 -48-48v-72a16 16 0 0 0 -16-16h-24v-32z" fill="#804a32"/><path d="m296 112 24 16v40a16 16 0 0 0 16 16h32v48h72v-149.328c0-31.39-24.68-57.76-56.06-58.65a57.743 57.743 0 0 0 -57.98 45.17l-5.96 26.808z" fill="#fdc8a2"/><circle cx="368" cy="96.002" fill="#91563a" r="16"/><path d="m345.49 37.272c29.58 41.97 67.85 65.88 94.51 78.51v-34.07a57.7 57.7 0 0 0 -94.51-44.44z" fill="#91563a"/><path d="m352 368a42.424 42.424 0 0 1 -40.79-30.77l-1.19-4.17a42.419 42.419 0 0 1 7.66-38.16l50.32-62.9h72v72l-8 96 17.45 48 14.55 40h-112z" fill="#4db6e4"/><path d="m464 488h-112v-40h97.45z" fill="#91563a"/><path d="m464 304v-44a28 28 0 0 0 -28-28 28 28 0 0 0 -28 28v44z" fill="#4db6e4"/><path d="m408 304h56v184h-56z" fill="#fdc8a2"/><path d="m144 144h48a32 32 0 0 1 32 32v16a0 0 0 0 1 0 0h-80a0 0 0 0 1 0 0v-48a0 0 0 0 1 0 0z" fill="#d65246"/><path d="m112 152h32v32h-32z" fill="#c7483c"/><path d="m200 248v-24h-32v24l-24 56v80h80v-80z" fill="#ffb431"/><path d="m168 192h32v32h-32z" fill="#c7483c"/><path d="m160 224h-16v-32h24z" fill="#c7483c"/><g fill="#4db6e4"><path d="m224 320 56-24-36.055-93.744a16 16 0 0 0 -14.934-10.256h-45.011a16 16 0 0 0 -16 16 16 16 0 0 0 16 16h16v32z"/><rect height="32" rx="16" width="48" x="120" y="192"/><rect height="64" rx="16" width="64" x="136" y="224"/><path d="m72 160h16v16h-16z"/><path d="m40 160h16v16h-16z"/><path d="m8 160h16v16h-16z"/><path d="m72.93 124.257h16v16h-16z" transform="matrix(.468 -.884 .884 .468 -73.823 141.899)"/><path d="m44.648 109.285h16v16h-16z" transform="matrix(.468 -.884 .884 .468 -75.64 108.938)"/><path d="m16.367 94.312h16v16h-16z" transform="matrix(.468 -.884 .884 .468 -77.456 75.976)"/><path d="m72.93 195.743h16v16h-16z" transform="matrix(.884 -.468 .468 .884 -85.925 61.544)"/><path d="m44.648 210.715h16v16h-16z" transform="matrix(.884 -.468 .468 .884 -96.217 50.052)"/><path d="m16.367 225.688h16v16h-16z" transform="matrix(.884 -.468 .468 .884 -106.509 38.559)"/></g><path d="m368 184h-32a16 16 0 0 1 -16-16v-40l64-8 16 40z" fill="#85ccd5"/><path d="m440 40h-7.3c-1.012-1.228-2.055-2.436-3.159-3.6a64.785 64.785 0 0 0 -45.378-20.376 65.788 65.788 0 0 0 -57.768 31.149l13.605 8.413a49.553 49.553 0 0 1 4.513-6.17 238.715 238.715 0 0 0 29.112 31.628 15.971 15.971 0 1 0 8.435 7.334q9.039 7.484 18.911 14.191l-19.325 9.662-59.691 7.462-11.533-7.693 14.016-9.343a8 8 0 0 0 3.372-4.921l5.959-26.806q.26-1.173.574-2.32l-15.434-4.21c-.276 1.008-.53 2.036-.759 3.061l-5.262 23.672-21.326 14.217a8 8 0 0 0 0 13.313l20.438 13.621v35.716a24.027 24.027 0 0 0 24 24h24v37.194l-48.568 60.706c-15.452 19.315-13.21 51.671 3.408 69.76l-3.447 9.85-27.414-66.579a8 8 0 0 0 3.488-9.807l-36.055-93.743a24.158 24.158 0 0 0 -19.412-15.175v-8.206a40.045 40.045 0 0 0 -40-40h-48a8 8 0 0 0 -8 8h-24a8 8 0 0 0 -8 8v32a8 8 0 0 0 8 8h6.131a23.978 23.978 0 0 0 11.569 39.154 23.857 23.857 0 0 0 -1.7 8.846v32a24.011 24.011 0 0 0 12.09 20.823l-3.442 8.024a7.986 7.986 0 0 0 -.648 3.153v25h16v-23.356l4.136-9.644h27.864a23.969 23.969 0 0 0 18.963-9.315l13.037 34.766v54.549h-64v-30h-16v38a8 8 0 0 0 8 8h80a8 8 0 0 0 8-8v-47.526l27.474 72.1a61.192 61.192 0 0 0 84.526 32.98v46.446a8 8 0 0 0 8 8h112a8 8 0 0 0 8-8v-87h-16v79h-40v-168h40v69h16v-121a36.057 36.057 0 0 0 -24-33.936v-18.89c.135.138.263.283.4.42a55.6 55.6 0 0 0 39.6 16.406 8 8 0 0 0 8-8v-120a56.064 56.064 0 0 0 -56-56zm-83.244-.914a49.776 49.776 0 0 1 26.957-7.067c26.625.755 48.287 23.481 48.287 50.653v16.058c-.338-.174-.676-.346-1.023-.506a25.45 25.45 0 0 0 -10.877-2.338 229.567 229.567 0 0 1 -63.344-56.8zm46.667 107.931-9.261-23.154 21.938-10.969a9.468 9.468 0 0 1 10.149 15.861zm-75.423 20.983v-32.938l50.865-6.358 11.43 28.575-24.962 18.721h-29.333a8.009 8.009 0 0 1 -8-8zm-4.073 131.9 47.916-59.9h34.239a35.786 35.786 0 0 0 -6.082 20v180h-40v-72a8 8 0 0 0 -8-8 34.475 34.475 0 0 1 -22.667-8.515c-14.322-12.501-17.379-36.614-5.406-51.585zm-131.927-147.9a24.027 24.027 0 0 1 24 24v8h-64v-32zm-72 8h16v16h-16zm16 40h16a8 8 0 0 1 0 16h-16a8 8 0 0 1 0-16zm56 72a8.009 8.009 0 0 1 -8 8h-32a8.009 8.009 0 0 1 -8-8v-32a8.009 8.009 0 0 1 8-8h32a8.009 8.009 0 0 1 8 8zm16-48a8 8 0 0 0 -8-8h-16a8 8 0 0 1 0-16h45.011a8.048 8.048 0 0 1 7.467 5.128l33.29 86.554-41.219 17.665-20.549-54.798zm133.675 200.455a45.2 45.2 0 0 1 -67.249-21.574l-31.376-82.342 26.243-11.247 35.31 85.754a8 8 0 0 0 7.397 4.954h.217a8 8 0 0 0 7.335-5.354l8.621-24.646a50.475 50.475 0 0 0 15.827 5.361v47.431c-.76.578-1.532 1.138-2.325 1.663zm18.325 55.545v-24h40v24zm96-220v36h-40v-36a20.022 20.022 0 0 1 19.952-20h.1a20.022 20.022 0 0 1 19.948 20zm-24-36h-56v-36l56-43.355zm48-16.8a40.042 40.042 0 0 1 -32-39.2v-85.328a67.1 67.1 0 0 0 -5.475-26.584 40.046 40.046 0 0 1 37.475 39.912z"/><path d="m72 160h16v16h-16z"/><path d="m40 160h16v16h-16z"/><path d="m8 160h16v16h-16z"/><path d="m72.93 124.257h16v16h-16z" transform="matrix(.468 -.884 .884 .468 -73.823 141.899)"/><path d="m44.648 109.285h16v16h-16z" transform="matrix(.468 -.884 .884 .468 -75.64 108.938)"/><path d="m16.367 94.312h16v16h-16z" transform="matrix(.468 -.884 .884 .468 -77.456 75.976)"/><path d="m72.93 195.743h16v16h-16z" transform="matrix(.884 -.468 .468 .884 -85.925 61.544)"/><path d="m44.648 210.715h16v16h-16z" transform="matrix(.884 -.468 .468 .884 -96.217 50.052)"/><path d="m16.367 225.688h16v16h-16z" transform="matrix(.884 -.468 .468 .884 -106.509 38.559)"/></g></svg>