<?xml version="1.0" encoding="iso-8859-1"?>
<!-- Generator: Adobe Illustrator 19.0.0, SVG Export Plug-In . SVG Version: 6.00 Build 0)  -->
<svg version="1.1" id="Layer_1" xmlns="http://www.w3.org/2000/svg" xmlns:xlink="http://www.w3.org/1999/xlink" x="0px" y="0px"
	 viewBox="0 0 511.999 511.999" style="enable-background:new 0 0 511.999 511.999;" xml:space="preserve">
<path style="fill:#FCD577;" d="M224.548,112.447v89.618H96.452V73.98h89.618C207.325,73.98,224.548,91.203,224.548,112.447z"/>
<path style="fill:#CFDCE5;" d="M224.548,112.447v51.975h-75.846V73.98h37.368C207.325,73.98,224.548,91.203,224.548,112.447z"/>
<polyline style="fill:#FCD577;" points="167.551,503.757 52.635,503.757 52.635,459.936 246.46,459.936 246.46,503.757 
	193.928,503.757 "/>
<path d="M481.845,101.125H230.823c-5.075-20.305-23.468-35.394-45.323-35.394h-3.253L156.566,5.032
	c-1.29-3.05-4.28-5.032-7.591-5.032s-6.301,1.982-7.591,5.032l-25.681,60.7H95.883c-4.553,0-8.243,3.691-8.243,8.243v27.15H30.153
	c-4.553,0-8.243,3.691-8.243,8.243V175.1c0,4.552,3.69,8.243,8.243,8.243h57.489v18.724c0,4.552,3.69,8.243,8.243,8.243h11.982
	v241.383H52.063c-4.553,0-8.243,3.691-8.243,8.243v43.821c0,4.552,3.69,8.243,8.243,8.243h114.916c4.553,0,8.243-3.691,8.243-8.243
	c0-4.552-3.69-8.243-8.243-8.243H60.306v-27.335h177.338v27.335h-44.288c-4.553,0-8.243,3.691-8.243,8.243
	c0,4.552,3.69,8.243,8.243,8.243h52.531c4.553,0,8.243-3.691,8.243-8.243v-43.821c0-4.552-3.69-8.243-8.243-8.243h-55.803V210.309
	h33.893c4.553,0,8.243-3.691,8.243-8.243v-18.724h200.933v74.785h-4.945c-4.553,0-8.243,3.691-8.243,8.243
	c0,4.552,3.69,8.243,8.243,8.243h4.945v20.994c0,4.552,3.69,8.243,8.243,8.243c8.233,0,14.932,6.698,14.932,14.931
	s-6.699,14.932-14.932,14.932c-8.233,0-14.932-6.699-14.932-14.932c0-4.552-3.69-8.243-8.243-8.243
	c-4.553,0-8.243,3.691-8.243,8.243c0,17.323,14.093,31.418,31.418,31.418c17.325,0,31.418-14.094,31.418-31.418
	c0-14.471-9.837-26.69-23.175-30.32v-13.848h4.945c4.553,0,8.243-3.691,8.243-8.243s-3.69-8.243-8.243-8.243h-4.945v-74.785h32.207
	c4.553,0,8.243-3.691,8.243-8.243v-65.732C490.088,104.816,486.398,101.125,481.845,101.125z M473.602,155.199l-37.588-37.588
	h37.588V155.199z M370.283,166.857l45.831-45.831l45.831,45.831H370.283z M232.219,155.199v-37.588h37.588L232.219,155.199z
	 M287.18,123.553l43.302,43.303h-86.605L287.18,123.553z M304.552,117.611h91.661l-45.831,45.831L304.552,117.611z M148.975,29.399
	l15.372,36.333h-30.743L148.975,29.399z M87.64,155.199l-37.588-37.588H87.64V155.199z M38.396,129.269l37.588,37.588H38.396
	V129.269z M173.597,374.304l-45.831-45.831l45.831-45.83V374.304z M170.183,394.205l-45.831,45.831v-91.661L170.183,394.205z
	 M124.352,308.573v-86.606l43.303,43.303L124.352,308.573z M136.009,451.692l37.588-37.588v37.588H136.009z M173.597,247.897
	l-37.588-37.588h37.588V247.897z M215.733,193.823H104.126V82.218h35.761v22.599c0,4.552,3.69,8.243,8.243,8.243
	s8.243-3.691,8.243-8.243V82.218h20.384c0.01,0,0.02,0.002,0.03,0.002c0.014,0,8.713-0.002,8.713-0.002
	c16.671,0,30.233,13.562,30.233,30.233v43.727h-59.36v-24.434c0-4.552-3.69-8.243-8.243-8.243s-8.243,3.691-8.243,8.243v32.677
	c0,4.552,3.69,8.243,8.243,8.243h67.602V193.823z"/>
<g>
</g>
<g>
</g>
<g>
</g>
<g>
</g>
<g>
</g>
<g>
</g>
<g>
</g>
<g>
</g>
<g>
</g>
<g>
</g>
<g>
</g>
<g>
</g>
<g>
</g>
<g>
</g>
<g>
</g>
</svg>
