<svg id="Layer_5" enable-background="new 0 0 64 64" height="512" viewBox="0 0 64 64" width="512" xmlns="http://www.w3.org/2000/svg"><g><g><g><path d="m38 36v4h-34-1c-.55 0-1-.45-1-1v-2c0-.55.45-1 1-1h1 12 12z" fill="#fc6e51"/></g><g><path d="m38 40v12h-14c0-3.31-2.69-6-6-6s-6 2.69-6 6h-6c-1.1 0-2-.9-2-2v-2h5l1-4h-6v-4z" fill="#ff826e"/></g><g><path d="m62 47v3c0 1.1-.9 2-2 2h-4c0-1.77-.77-3.37-2-4.47v-9.53-4l-.97-5.18c-.09-.48-.5-.82-.98-.82h-9.05c-.55 0-1 .45-1 1v9 14h-4v-12-4-6-2c0-.73.2-1.41.54-2 .69-1.2 1.98-2 3.46-2h10.61c1.96 0 3.63 1.41 3.95 3.34l1.44 8.66 1.79.89c1.35.68 2.21 2.07 2.21 3.58v1.53h-4v3z" fill="#ff826e"/></g><g><path d="m54 38v9.53c-1.06-.95-2.46-1.53-4-1.53-3.31 0-6 2.69-6 6h-2v-14h9 1z" fill="#fc6e51"/></g><g><path d="m62 42v5l-4-2v-3z" fill="#fcd770"/></g><g><path d="m10 44-1 4h-5v-4z" fill="#fcd770"/></g><g><path d="m54 47.53c1.23 1.1 2 2.7 2 4.47 0 3.31-2.69 6-6 6s-6-2.69-6-6 2.69-6 6-6c1.54 0 2.94.58 4 1.53z" fill="#969faa"/></g><g><path d="m18 46c3.31 0 6 2.69 6 6s-2.69 6-6 6-6-2.69-6-6 2.69-6 6-6z" fill="#969faa"/></g><g><circle cx="50" cy="52" fill="#ccd1d9" r="2"/></g><g><circle cx="18" cy="52" fill="#ccd1d9" r="2"/></g><g><path d="m48 35c0 1.66 1.34 3 3 3h-9v-9c0-.55.45-1 1-1h9.05c.48 0 .89.34.98.82l.97 5.18h-5c-.55 0-1 .45-1 1z" fill="#69d6f4"/></g><g><path d="m54 34v4h-2-1c-1.66 0-3-1.34-3-3 0-.55.45-1 1-1z" fill="#aab2bd"/></g><g><path d="m4 26h12v10h-12z" fill="#d3a06c"/></g><g><path d="m16 26h12v10h-12z" fill="#d3a06c"/></g><g><path d="m28 26h12v10h-12z" fill="#d3a06c"/></g><g><path d="m10 16h12v10h-12z" fill="#d3a06c"/></g><g><path d="m22 16h12v10h-12z" fill="#d3a06c"/></g><g><path d="m16 6h12v10h-12z" fill="#d3a06c"/></g><g><path d="m20 6h4v4h-4z" fill="#b27946"/></g><g><path d="m18 16v4h-4v-4h2z" fill="#b27946"/></g><g><path d="m30 16v4h-4v-4h2z" fill="#b27946"/></g><g><path d="m34 26h4.54c-.34.59-.54 1.27-.54 2v2h-6v-4z" fill="#b27946"/></g><g><path d="m24 26v4h-4v-4h2z" fill="#b27946"/></g><g><path d="m12 26v4h-4v-4h2z" fill="#b27946"/></g></g><g><path d="m50 49c-1.654 0-3 1.346-3 3s1.346 3 3 3 3-1.346 3-3-1.346-3-3-3zm0 4c-.552 0-1-.448-1-1s.448-1 1-1 1 .448 1 1-.448 1-1 1z"/><path d="m18 49c-1.654 0-3 1.346-3 3s1.346 3 3 3 3-1.346 3-3-1.346-3-3-3zm0 4c-.552 0-1-.448-1-1s.448-1 1-1 1 .448 1 1-.448 1-1 1z"/><path d="m60.236 36-1.334-.667-1.359-8.154c-.403-2.422-2.478-4.179-4.932-4.179h-10.611c-1.627 0-3.061.793-3.974 2h-3.026v-10h-6v-10h-14v10h-6v10h-6v10c-1.103 0-2 .897-2 2v2c0 1.103.897 2 2 2v9c0 1.654 1.346 3 3 3h5.08c.488 3.386 3.401 6 6.92 6s6.432-2.614 6.92-6h18.16c.488 3.386 3.401 6 6.92 6s6.432-2.614 6.92-6h3.08c1.654 0 3-1.346 3-3v-9.528c0-1.906-1.059-3.618-2.764-4.472zm.764 9.382-2-1v-1.382h2zm-40-18.382h2v2h-2zm4 4v-4h2v8h-10v-8h2v4zm12 4h-8v-8h2v4h6zm0-7v1h-4v-2h4.101c-.066.323-.101.658-.101 1zm-4-3h-4-2-4v-8h2v4h6v-4h2zm-6-8h2v2h-2zm-6-10h2v2h-2zm-4 0h2v4h6v-4h2v8h-4-2-4zm-2 10h2v2h-2zm-4 0h2v4h6v-4h2v8h-4-2-4zm-2 10h2v2h-2zm-4 0h2v4h6v-4h2v8h-10zm-2 10h34v2h-34zm2 8h3.719l-.5 2h-3.219zm0 5v-1h4.781l1.5-6h-6.281v-2h32v10h-12.08c-.488-3.386-3.401-6-6.92-6s-6.432 2.614-6.92 6h-5.08c-.552 0-1-.448-1-1zm13 7c-2.757 0-5-2.243-5-5s2.243-5 5-5 5 2.243 5 5-2.243 5-5 5zm31-22h4v2h-1-1c-1.103 0-2-.897-2-2zm0-2c-1.103 0-2 .897-2 2 0 .732.212 1.409.556 2h-4.556v-8h9.046l.749 4zm-6 6h8 1 1v6.685c-.911-.434-1.926-.685-3-.685-3.519 0-6.432 2.614-6.92 6h-.08zm7 18c-2.757 0-5-2.243-5-5s2.243-5 5-5 5 2.243 5 5-2.243 5-5 5zm10-6h-3.08c-.216-1.502-.906-2.852-1.92-3.889v-13.111l-.987-5.366c-.176-.946-1.003-1.634-1.966-1.634h-9.047c-1.103 0-2 .897-2 2v22h-2v-23c0-1.654 1.346-3 3-3h10.611c1.473 0 2.717 1.055 2.959 2.507l1.527 9.16 2.244 1.122c1.023.512 1.659 1.54 1.659 2.683v.528h-4v4.618l4 2v2.382c0 .552-.448 1-1 1z"/></g></g></svg>