<?xml version="1.0"?>
<svg xmlns="http://www.w3.org/2000/svg" viewBox="0 0 512 512" width="512" height="512"><g id="_01-meal" data-name="01-meal"><g id="linear_color" data-name="linear color"><path d="M438.205,276.534c-11.043-2.779-22.806,1.025-34.956,11.305-11.4,9.643-23.675,26.237-28.29,32.723l-39.107,18.95-9.32-3.858A43.877,43.877,0,0,0,340,304V288a12,12,0,0,0-12-12H16a12,12,0,0,0,0,24H116V484H16a12,12,0,0,0,0,24H128a12,12,0,0,0,12-12V412h52a12,12,0,0,0,12-12v-1.834l130.027,21.671a12.014,12.014,0,0,0,7.8-1.347l72-40a12.008,12.008,0,0,0,4.408-4.226l41-67a12,12,0,0,0,.928-10.665C459.512,294.946,453.362,280.348,438.205,276.534ZM180,388H140V300h40Zm219.412-28.957-65.575,36.431L204,373.834V300H316v4a20.027,20.027,0,0,1-13.814,19.009c-.063,0-.123-.009-.186-.009H265a12,12,0,0,0,0,24h26.222c.063.028.123.061.187.087l40.237,16.661a12,12,0,0,0,9.824-.289l46.763-22.66a12.015,12.015,0,0,0,4.68-4.036c.141-.207,14.257-20.8,25.838-30.6,5.533-4.681,10.591-7.062,13.538-6.368a5.86,5.86,0,0,1,2.5,1.436Z"/><path d="M16,252H432a12,12,0,0,0,0-24H410.28a230.787,230.787,0,0,0-27.99-74.174c-20.385-33.974-58.124-73.6-125.418-83.494.786-2.3,1.564-4.759,2.276-7.342,5.028-18.245,4.309-32.784-2.138-43.215C252.562,12.579,243.225,4,224,4s-28.563,8.579-33.01,15.775c-6.447,10.431-7.166,24.97-2.138,43.215.712,2.583,1.49,5.044,2.276,7.342C123.834,80.223,86.1,119.852,65.71,153.826A230.787,230.787,0,0,0,37.72,228H16a12,12,0,0,0,0,24ZM211.411,32.384c2.554-5.841,22.624-5.841,25.178,0,4.341,7,.473,23.476-4.437,35.751-5.333-.18-10.971-.18-16.3,0C210.938,55.86,207.07,39.388,211.411,32.384ZM86.715,165.469C116.273,116.719,162.462,92,224,92s107.727,24.719,137.285,73.469c14.48,23.882,21.382,48.111,24.482,62.531H62.233C65.333,213.58,72.235,189.351,86.715,165.469Z"/><path d="M384.5,92.5a36.04,36.04,0,0,0,36-36,12.013,12.013,0,0,1,12-12,12,12,0,0,0,0-24,36.04,36.04,0,0,0-36,36,12.013,12.013,0,0,1-12,12,12,12,0,0,0,0,24Z"/><path d="M460,77a36.04,36.04,0,0,0-36,36,12.013,12.013,0,0,1-12,12,12,12,0,0,0,0,24,36.04,36.04,0,0,0,36-36,12.013,12.013,0,0,1,12-12,12,12,0,0,0,0-24Z"/></g></g></svg>
