<svg id="Capa_1" enable-background="new 0 0 512 512" height="512" viewBox="0 0 512 512" width="512" xmlns="http://www.w3.org/2000/svg"><g><g><path d="m270.389 230.099h52.103v52.103h-52.103z" fill="#4a80aa"/></g><g><path d="m296.698 230.099v26.583c0 6.957-5.64 12.597-12.597 12.597h-13.712v12.923h52.103v-52.103z" fill="#407093"/></g><g><path d="m381.697 266.125h114.601v51.277h-114.601z" fill="#4a80aa"/></g><g><g><path d="m423.586 266.125c16.691 6.457 28.533 22.651 28.533 41.621 0 3.317-.373 6.545-1.06 9.656h45.238v-51.277z" fill="#407093"/></g></g><g><path d="m35.275 248.106h196.454v56.297h-196.454z" fill="#4a80aa"/></g><g><g><path d="m167.235 266.125c13.108 7.734 21.918 21.971 21.981 38.278h42.513v-38.278z" fill="#407093"/></g></g><g><path d="m35.275 248.106v19.068c6.998-4.561 15.349-7.221 24.326-7.221 24.587 0 44.525 19.885 44.619 44.45h28.509v-56.297z" fill="#407093"/></g><g><path d="m267.985 155.796h-250.472c-5.527 0-10.007 4.48-10.007 10.007v128.592c0 5.527 4.48 10.007 10.007 10.007h26.975c2.229 0 4.206-1.47 4.802-3.618 4.976-17.942 21.417-31.116 40.944-31.116 20.409 0 37.446 14.39 41.547 33.576.014.068.055.365.095.67.056.428.422.749.854.749.428 0 .791-.314.852-.738.047-.328.097-.658.114-.737 4.122-19.157 21.146-33.519 41.535-33.519 19.527 0 35.967 13.173 40.944 31.116.596 2.148 2.573 3.618 4.802 3.618h47.01c5.527 0 10.007-4.48 10.007-10.007v-128.593c-.002-5.527-4.482-10.007-10.009-10.007z" fill="#dd636e"/></g><g><g><path d="m7.505 281.259v13.137c0 5.527 4.48 10.007 10.007 10.007h26.975c2.229 0 4.206-1.47 4.802-3.618 2.1-7.57 6.245-14.285 11.797-19.526z" fill="#da4a54"/></g><g><path d="m267.985 155.796h-13.137v115.456c0 5.527-4.48 10.007-10.007 10.007h-40.465c5.552 5.241 9.698 11.956 11.797 19.526.596 2.148 2.573 3.618 4.802 3.618h47.01c5.527 0 10.007-4.48 10.007-10.007v-128.593c0-5.527-4.48-10.007-10.007-10.007z" fill="#da4a54"/></g><g><path d="m119.381 281.259c6.146 5.802 10.567 13.412 12.4 21.986.014.068.055.365.095.67.056.429.422.749.854.749.428 0 .791-.314.852-.738.047-.328.097-.658.114-.737 1.84-8.55 6.255-16.14 12.387-21.929h-26.702z" fill="#da4a54"/></g></g><g><path d="m492.189 240.352-57.145-10.472c-5.357-.982-9.762-4.788-11.51-9.945l-18.291-53.948c-2.065-6.092-7.783-10.191-14.216-10.191h-66.397c-8.29 0-15.011 6.721-15.011 15.011v123.589c0 5.527 4.48 10.007 10.007 10.007h43.363c2.763 0 5.004 2.24 5.004 5.004v26.006c0 2.763 2.24 5.004 5.004 5.004h15.745c2.763 0 5.004-2.24 5.004-5.004v-22.545c0-23.305 18.47-42.803 41.772-43.192 23.804-.397 43.225 18.78 43.225 42.492v23.245c0 2.763 2.24 5.004 5.004 5.004h15.745c2.763 0 5.004-2.24 5.004-5.004v-80.295c-.001-7.248-5.179-13.46-12.307-14.766z" fill="#e7ecf6"/></g><g><circle cx="175.23" cy="326.455" fill="#365e7d" r="29.749"/></g><g><circle cx="90.234" cy="326.455" fill="#365e7d" r="29.749"/></g><g><circle cx="436.244" cy="326.455" fill="#365e7d" r="29.749"/></g><g><path d="m190.097 300.692c2.53 4.375 3.986 9.45 3.986 14.867 0 16.43-13.319 29.749-29.749 29.749-5.418 0-10.492-1.455-14.867-3.986 5.143 8.893 14.751 14.881 25.763 14.881 16.43 0 29.749-13.319 29.749-29.749 0-11.011-5.988-20.618-14.882-25.762z" fill="#2b4d66"/></g><g><path d="m105.101 300.692c2.53 4.375 3.986 9.45 3.986 14.867 0 16.43-13.319 29.749-29.749 29.749-5.418 0-10.492-1.455-14.867-3.986 5.143 8.893 14.751 14.881 25.763 14.881 16.43 0 29.749-13.319 29.749-29.749-.001-11.011-5.989-20.618-14.882-25.762z" fill="#2b4d66"/></g><g><path d="m451.112 300.692c2.53 4.375 3.986 9.45 3.986 14.867 0 16.43-13.319 29.749-29.749 29.749-5.418 0-10.492-1.455-14.867-3.986 5.143 8.893 14.751 14.881 25.763 14.881 16.43 0 29.749-13.319 29.749-29.749-.001-11.011-5.989-20.618-14.882-25.762z" fill="#2b4d66"/></g><g><g><path d="m492.189 240.352-57.145-10.472c-5.357-.982-9.762-4.788-11.51-9.945l-18.291-53.948c-2.065-6.092-7.783-10.191-14.216-10.191h-12.256l27.875 83.028c1.749 5.158 6.153 8.963 11.51 9.945l56.925 10.432c4.752.871 8.203 5.012 8.203 9.843v71.325c.154.014.303.046.461.046h15.745c2.763 0 5.004-2.24 5.004-5.004v-80.295c.001-7.246-5.177-13.458-12.305-14.764z" fill="#d8e2f1"/></g></g><g><path d="m347.359 230.099h88.885l-1.199-.22c-5.357-.982-9.762-4.788-11.51-9.945l-11.44-33.742h-64.736c-2.763 0-5.004 2.24-5.004 5.004v33.899c0 2.764 2.241 5.004 5.004 5.004z" fill="#90d8f9"/></g><g><path d="m403.718 230.099h32.526l-1.199-.22c-5.357-.982-9.762-4.788-11.51-9.945l-11.44-33.742h-23.118z" fill="#75cef9"/></g><g><path d="m493.542 232.969-57.145-10.472c-2.676-.491-4.881-2.396-5.755-4.973l-18.29-53.948c-3.1-9.143-11.67-15.286-21.324-15.286h-66.397c-12.416 0-22.516 10.101-22.516 22.516v51.787h-16.617v-56.791c0-9.656-7.856-17.513-17.513-17.513h-180.672c-4.145 0-7.505 3.36-7.505 7.505 0 3.337 2.179 6.162 5.191 7.138v85.172c0 4.145 3.36 7.505 7.505 7.505s7.505-3.36 7.505-7.505v-84.805h30.814v84.805c0 4.145 3.36 7.505 7.505 7.505s7.505-3.36 7.505-7.505v-84.805h30.814v84.805c0 4.145 3.36 7.505 7.505 7.505s7.505-3.36 7.505-7.505v-84.805h30.814v84.805c0 4.145 3.36 7.505 7.505 7.505s7.505-3.36 7.505-7.505v-84.805h30.5c1.379 0 2.502 1.122 2.502 2.502v128.592c0 1.379-1.122 2.502-2.502 2.502h-70.117c-6.28-4.821-14.128-7.696-22.638-7.696-8.511 0-16.359 2.875-22.638 7.696h-8.827c5.756-11.786 17.926-19.723 31.466-19.723 5.428 0 10.625 1.207 15.448 3.587 3.718 1.836 8.218.308 10.052-3.409s.308-8.217-3.409-10.052c-6.906-3.408-14.339-5.137-22.09-5.137-17.582 0-33.557 9.365-42.499 23.71-8.941-14.35-24.91-23.71-42.498-23.71-21.729 0-41.031 14.186-47.614 34.734h-25.104c-1.379 0-2.502-1.122-2.502-2.502v-128.59c0-1.379 1.122-2.502 2.502-2.502h21.662v84.805c0 4.145 3.36 7.505 7.505 7.505s7.505-3.36 7.505-7.505v-85.789c2.267-1.292 3.798-3.725 3.798-6.521 0-4.145-3.36-7.505-7.505-7.505h-32.965c-9.657-.001-17.513 7.855-17.513 17.512v128.592c0 9.656 7.856 17.513 17.513 17.513h38.426c-1.904 4.472-2.96 9.389-2.96 14.548 0 20.542 16.712 37.254 37.254 37.254s37.254-16.712 37.254-37.254c0-5.159-1.055-10.076-2.96-14.548h16.407c-1.904 4.472-2.96 9.389-2.96 14.548 0 20.542 16.712 37.254 37.254 37.254s37.254-16.712 37.254-37.254c0-5.159-1.055-10.076-2.96-14.548h58.461c9.656 0 17.513-7.856 17.513-17.513v-4.687h16.617v4.687c0 9.656 7.856 17.513 17.513 17.513h40.861v11.964h-42.573c-4.145 0-7.505 3.36-7.505 7.505s3.36 7.505 7.505 7.505h43.073c1.509 5.213 6.316 9.038 12.009 9.038h15.745c5.92 0 10.882-4.139 12.172-9.671 4.946 14.777 18.909 25.461 35.33 25.461 16.42 0 30.384-10.684 35.33-25.461 1.29 5.533 6.252 9.672 12.172 9.672h15.745c6.898 0 12.509-5.611 12.509-12.509v-80.295c.001-10.873-7.761-20.187-18.457-22.148zm-403.309 44.205c13.54 0 25.702 7.93 31.463 19.723h-8.824c-6.28-4.821-14.128-7.696-22.638-7.696s-16.358 2.875-22.638 7.696h-8.838c5.764-11.861 17.944-19.723 31.475-19.723zm0 71.525c-12.265 0-22.243-9.978-22.243-22.244s9.978-22.244 22.243-22.244 22.244 9.978 22.244 22.244-9.978 22.244-22.244 22.244zm84.997 0c-12.265 0-22.244-9.978-22.244-22.244s9.978-22.244 22.244-22.244c12.265 0 22.243 9.978 22.243 22.244s-9.978 22.244-22.243 22.244zm110.268-74.002v-37.093h16.617v37.093zm150.746 74.002c-12.265 0-22.244-9.978-22.244-22.244s9.978-22.244 22.244-22.244c12.265 0 22.243 9.978 22.243 22.244s-9.978 22.244-22.243 22.244zm0-59.498c-16.052 0-29.765 10.204-34.993 24.467v-.801c0-19.362 15.428-35.371 34.392-35.687 9.457-.172 18.394 3.406 25.136 10.037 6.744 6.633 10.458 15.494 10.458 24.951v1.502c-5.228-14.264-18.941-24.469-34.993-24.469zm60.745 43.709h-10.741v-20.743c0-13.514-5.307-26.177-14.944-35.654-9.635-9.475-22.397-14.585-35.912-14.343-27.103.452-49.152 23.194-49.152 50.696v20.043h-10.74v-23.504c0-6.898-5.611-12.509-12.509-12.509h-43.363c-1.379 0-2.502-1.122-2.502-2.502v-123.588c0-4.139 3.367-7.505 7.505-7.505h66.397c3.218 0 6.075 2.048 7.108 5.095l3.489 10.291h-54.266c-6.898 0-12.509 5.611-12.509 12.509v33.899c0 6.898 5.611 12.509 12.509 12.509h2.692c4.145 0 7.505-3.36 7.505-7.505s-3.36-7.505-7.505-7.505h-.191v-28.896h56.853l9.712 28.647c.029.084.064.165.094.249h-30.115c-4.145 0-7.505 3.36-7.505 7.505s3.36 7.505 7.505 7.505h49.155l55.275 10.129c3.565.654 6.153 3.759 6.153 7.383v77.794z"/><circle cx="90.234" cy="326.455" r="8.925"/><circle cx="175.23" cy="326.455" r="8.925"/><circle cx="436.244" cy="326.455" r="8.925"/></g></g></svg>