<svg id="Layer_3" enable-background="new 0 0 64 64" height="64" viewBox="0 0 64 64" width="64" xmlns="http://www.w3.org/2000/svg"><g><path d="m18.352 50-2.352-6v-4h9.998v4l-2.005 6z" fill="#f2c351"/><path d="m16 44 2.352 6h.961c1.424-1.375 2.313-3.301 2.313-5.437 0-1.716-.578-3.294-1.542-4.563h-4.084z" fill="#f7d881"/><g fill="#7f786b"><path d="m8 16h-2c-2.209 0-4 1.791-4 4 0 2.209 1.791 4 4 4h2"/><path d="m56 16h2c2.209 0 4 1.791 4 4 0 2.209-1.791 4-4 4h-2"/><path d="m15 6 1-4h6l1 4"/><path d="m40 6 1-4h6l1 4"/></g><path d="m10 28h44c1.105 0 2-.895 2-2v-18c0-1.105-.895-2-2-2h-44c-1.105 0-2 .895-2 2v18c0 1.105.895 2 2 2z" fill="#f2c351"/><path d="m14 12h36v14h-36z" fill="#fff"/><path d="m16 23h32v10h-32z" fill="#9e968d"/><path d="m12 20h4v16h-4z" fill="#f7d881"/><path d="m48 20h4v16h-4z" fill="#f7d881"/><path d="m19 40v-17c0-1.105.895-2 2-2 1.105 0 2 .895 2 2v17" fill="#7f786b"/><path d="m28 35c-1.105 0-2-.895-2-2v-10c0-1.105.895-2 2-2 1.105 0 2 .895 2 2v10c0 1.105-.895 2-2 2z" fill="#7f786b"/><path d="m36 35c-1.105 0-2-.895-2-2v-10c0-1.105.895-2 2-2 1.105 0 2 .895 2 2v10c0 1.105-.895 2-2 2z" fill="#7f786b"/><path d="m43 35c-1.105 0-2-.895-2-2v-10c0-1.105.895-2 2-2 1.105 0 2 .895 2 2v10c0 1.105-.895 2-2 2z" fill="#7f786b"/><path d="m41 15h-18v-4c0-1.105.895-2 2-2h14c1.105 0 2 .895 2 2z" fill="#f7d881"/><g><path d="m21 45.999c-1.104 0-2-.896-2-1.999 0-1.104.896-2 2-2 1.103 0 1.999.896 1.999 2 0 1.103-.896 1.999-1.999 1.999z" fill="#625d51"/></g><g><path d="m21.005 62.997c-1.132 0-2.228-.375-3.121-1.088-1.197-.954-1.884-2.38-1.884-3.909v-1h2v1c0 .917.412 1.772 1.131 2.346.73.583 1.65.786 2.589.57 1.069-.244 1.952-1.127 2.196-2.196.266-1.163-.135-2.338-1.047-3.065-1.824-1.458-2.871-3.509-2.871-5.626l1.002-.029.999.034-.001.028c0 1.472.773 2.952 2.12 4.029 1.517 1.211 2.187 3.155 1.748 5.073-.418 1.83-1.871 3.283-3.702 3.701-.386.089-.774.132-1.159.132z" fill="#cbc3b6"/></g><path d="m26.202 9h-1.202c-.372 0-.715.108-1.013.284l3.81 5.716h2.405z" fill="#625d51"/><path d="m32.797 15h2.405l-4-6h-2.405z" fill="#625d51"/><path d="m33.798 9 3.999 6h2.404l-3.999-6z" fill="#625d51"/><g><path d="m11.499 10.998c-.827 0-1.5-.673-1.5-1.499 0-.827.673-1.5 1.5-1.5.826 0 1.499.673 1.499 1.5 0 .826-.673 1.499-1.499 1.499zm0-1.999c-.276 0-.5.224-.5.5 0 .275.224.499.5.499.275 0 .499-.224.499-.499 0-.276-.224-.5-.499-.5z" fill="#625d51"/></g><g><path d="m52.499 10.998c-.827 0-1.5-.673-1.5-1.499 0-.827.673-1.5 1.5-1.5.826 0 1.499.673 1.499 1.5 0 .826-.673 1.499-1.499 1.499zm0-1.999c-.276 0-.5.224-.5.5 0 .275.224.499.5.499.275 0 .499-.224.499-.499 0-.276-.224-.5-.499-.5z" fill="#625d51"/></g><g><path d="m55.999 18.999h2.999v1.999h-2.999z" fill="#9e968d"/></g><g><path d="m4.999 18.999h2.999v1.999h-2.999z" fill="#9e968d"/></g><path d="m19 44c0 1.103.896 1.999 2 1.999.172 0 .336-.029.496-.07.081-.444.13-.899.13-1.366 0-.895-.163-1.749-.448-2.545-.06-.005-.117-.018-.178-.018-1.104 0-2 .896-2 2z" fill="#9e968d"/><g><path d="m21 45.999c1.103 0 1.999-.896 1.999-1.999 0-1.104-.896-2-1.999-2-1.104 0-2 .896-2 2 0 1.103.896 1.999 2 1.999z"/><path d="m11.5 7.999c-.827 0-1.5.673-1.5 1.5 0 .826.673 1.499 1.5 1.499.826 0 1.499-.673 1.499-1.499 0-.827-.673-1.5-1.499-1.5zm0 1.999c-.276 0-.5-.224-.5-.499 0-.276.224-.5.5-.5.275 0 .499.224.499.5 0 .275-.224.499-.499.499z"/><path d="m52.5 7.999c-.827 0-1.5.673-1.5 1.5 0 .826.673 1.499 1.5 1.499.826 0 1.499-.673 1.499-1.499 0-.827-.673-1.5-1.499-1.5zm0 1.999c-.276 0-.5-.224-.5-.499 0-.276.224-.5.5-.5.275 0 .499.224.499.5 0 .275-.224.499-.499.499z"/><path d="m58 14.999h-1.001v-7c0-1.654-1.346-3-3-3h-5.219l-.81-3.243c-.111-.445-.512-.757-.971-.757h-5.999c-.459 0-.859.312-.971.757l-.811 3.243h-15.437l-.811-3.243c-.111-.445-.512-.757-.971-.757h-5.999c-.459 0-.859.312-.971.757l-.811 3.243h-4.218c-1.654 0-3 1.346-3 3v7h-1.002c-2.756 0-4.998 2.243-4.998 5.001 0 2.756 2.242 4.998 4.998 4.998h1.002v1c0 1.654 1.346 3 3 3h1v7c0 .553.447 1 1 1h3.999c.553 0 1-.447 1-1v-1.999h1.001v5.001h-2c-.553 0-1 .447-1 1v4c0 .107.017.214.051.315l2 6c.136.408.519.684.949.684h2.081c.267 1.763 1.245 3.421 2.788 4.655.912.728 1.312 1.902 1.047 3.065-.244 1.069-1.127 1.952-2.196 2.196-.938.216-1.858.013-2.589-.57-.719-.573-1.131-1.428-1.131-2.345v-1h-2v1c0 1.529.687 2.955 1.884 3.909.894.713 1.989 1.089 3.121 1.088.385 0 .773-.043 1.159-.131 1.831-.418 3.284-1.871 3.702-3.701.438-1.918-.231-3.862-1.748-5.073-1.056-.844-1.751-1.936-2.005-3.093h1.886c.431 0 .813-.275.949-.684l2-6c.034-.102.051-.208.051-.315v-4c0-.553-.447-1-1-1h-2.001l.001-5.002h1.185c.414 1.162 1.514 2.001 2.816 2.001 1.301 0 2.4-.838 2.815-2.001l2.369.002c.414 1.161 1.514 1.999 2.816 1.999 1.301 0 2.4-.838 2.815-2l1.369.001c.415 1.161 1.515 1.999 2.816 1.999 1.302 0 2.401-.839 2.814-2.001h1.186v2c0 .553.447 1 1 1h3.999c.553 0 1-.447 1-1v-7h1c1.654 0 3-1.346 3-3v-.998h1.001c2.755 0 4.998-2.244 5-5.001 0-2.758-2.243-5-5-5zm-16.22-12h4.438l.5 2h-5.438zm-25 0h4.438l.5 2h-5.438zm-10.782 19.999c-1.653 0-2.998-1.346-2.998-2.999 0-1.654 1.345-3 2.998-3h1.002v2h-2v1.999h2v2zm9.001 12h-1.999v-13.999h1.999zm2-2.999v-8.001h1l.001 8.002zm8 11.838-1.721 5.162h-4.558l-1.72-5.162v-2.837h7.999zm-4.999-4.837-.001-16.002c0-.551.448-.998 1.001-.998.551 0 1 .447 1 .998l-.002 16.002zm4-15.002h1v8.001h-1.001zm5 9.001c-.001.552-.449 1-1 1h-.001c-.552 0-.999-.448-.999-1v-10.001c-.001-.267.103-.518.291-.706.189-.188.44-.292.709-.292.551 0 1 .447 1 .998zm2-9.001h2v8.002h-2zm5 10.001c-.553 0-1-.448-1-1v-10.001c-.001-.267.103-.518.291-.706.189-.188.44-.292.709-.292.551 0 1 .447 1 .998v1 8.001 1.002c-.003.551-.45.998-1 .998zm3.999-10.001v8.002h-.999v-8.001h.999zm3.999 9.001c0 .552-.447 1-.998 1h-.001c-.552 0-1-.448-1-1v-10.001c0-.551.448-.998 1.001-.998.551 0 1 .447 1 .998zm2-1 .002-8.001h1v8.001zm1.002-12v2h-1.184c-.415-1.161-1.515-1.999-2.817-1.999s-2.402.838-2.816 1.999h-1.367c-.415-1.161-1.515-1.999-2.817-1.999-.802 0-1.555.312-2.121.878-.321.321-.55.706-.697 1.121h-2.365c-.415-1.161-1.515-1.999-2.817-1.999-.802 0-1.555.312-2.121.878-.321.321-.55.706-.697 1.121h-1.365c-.415-1.161-1.515-1.999-2.817-1.999s-2.402.838-2.816 1.999h-1.184v-2c0-.553-.447-1-1-1h-.999v-6h7v1.999c0 .553.447 1 1 1h17.999c.553 0 1-.447 1-1v-1.999h7v6h-.999c-.553 0-1 .447-1 1zm-7.465-6.001-2.666-3.999h2.13c.552 0 1 .448 1 1v2.999zm-5.071-3.999 2.666 3.999h-2.595l-2.666-3.999zm-5 0 2.666 3.999h-2.595l-2.666-3.999zm-4.918.123 2.584 3.876h-3.13v-2.999c0-.385.226-.71.546-.877zm26.453 24.876h-1.999v-13.999h1.999zm4-9c0 .552-.448 1-1 1h-1v-6.999c0-.553-.447-1-1-1h-1v-7c0-.553-.447-1-1-1h-8c0-1.654-1.346-3-3-3h-13.999c-1.654 0-3 1.346-3 3h-8c-.553 0-1 .447-1 1v7h-1c-.553 0-1 .447-1 1v6.999h-1c-.552 0-1-.448-1-1v-17.999c0-.552.448-1 1-1h43.999c.552 0 1 .448 1 1zm3.001-2.998h-1.001v-2.002h2v-1.999h-2v-2h1.001c1.653 0 3 1.346 3 3-.001 1.654-1.347 3.001-3 3.001z"/></g></g></svg>